<?xml version="1.0" encoding="us-ascii" standalone="no"?><svg xmlns="http://www.w3.org/2000/svg" xmlns:xlink="http://www.w3.org/1999/xlink" contentStyleType="text/css" height="353px" preserveAspectRatio="none" style="width:882px;height:353px;background:#FFFFFF;" version="1.1" viewBox="0 0 882 353" width="882px" zoomAndPan="magnify"><defs/><g><!--cluster Facilities--><g id="cluster_Facilities"><rect fill="none" height="238" rx="2.5" ry="2.5" style="stroke:#181818;stroke-width:1.0;" width="111" x="7" y="96"/><text fill="#000000" font-family="sans-serif" font-size="14" font-weight="bold" lengthAdjust="spacing" textLength="74" x="25.5" y="110.9951">Facilities</text></g><!--cluster Business Interface--><g id="cluster_Business Interface"><path d="M275.5,6 L427.5,6 A3.75,3.75 0 0 1 430,8.5 L437,28.2969 L872.5,28.2969 A2.5,2.5 0 0 1 875,30.7969 L875,343.5 A2.5,2.5 0 0 1 872.5,346 L275.5,346 A2.5,2.5 0 0 1 273,343.5 L273,8.5 A2.5,2.5 0 0 1 275.5,6 " fill="none" style="stroke:#000000;stroke-width:1.5;"/><line style="stroke:#000000;stroke-width:1.5;" x1="273" x2="437" y1="28.2969" y2="28.2969"/><text fill="#000000" font-family="sans-serif" font-size="14" font-weight="bold" lengthAdjust="spacing" textLength="151" x="277" y="20.9951">Business Interface</text></g><!--entity r--><g id="elem_r"><ellipse cx="62.5" cy="139.5" fill="#F1F1F1" rx="8" ry="8" style="stroke:#181818;stroke-width:0.5;"/><line style="stroke:#181818;stroke-width:0.5;" x1="60.5562" x2="70.2603" y1="147.2603" y2="137.5562"/><path d="M62.5,147.5 L62.5,174.5 M49.5,155.5 L75.5,155.5 M62.5,174.5 L49.5,189.5 M62.5,174.5 L75.5,189.5 " fill="none" style="stroke:#181818;stroke-width:0.5;"/><text fill="#000000" font-family="sans-serif" font-size="14" lengthAdjust="spacing" textLength="79" x="23" y="203.9951">Restaurant</text></g><!--entity h--><g id="elem_h"><ellipse cx="62.5" cy="250.5" fill="#F1F1F1" rx="8" ry="8" style="stroke:#181818;stroke-width:0.5;"/><line style="stroke:#181818;stroke-width:0.5;" x1="60.5562" x2="70.2603" y1="258.2603" y2="248.5562"/><path d="M62.5,258.5 L62.5,285.5 M49.5,266.5 L75.5,266.5 M62.5,285.5 L49.5,300.5 M62.5,285.5 L75.5,300.5 " fill="none" style="stroke:#181818;stroke-width:0.5;"/><text fill="#000000" font-family="sans-serif" font-size="14" lengthAdjust="spacing" textLength="39" x="43" y="314.9951">Hotel</text></g><g id="elem_SI"><ellipse cx="781.1551" cy="59.031" fill="#F1F1F1" rx="78.1551" ry="18.031" style="stroke:#181818;stroke-width:0.5;"/><text fill="#000000" font-family="sans-serif" font-size="14" lengthAdjust="spacing" textLength="114" x="721.7659" y="62.6166">Sign in / Sign up</text></g><g id="elem_ATA"><ellipse cx="439.0678" cy="58.0136" fill="#F1F1F1" rx="73.0678" ry="17.0136" style="stroke:#181818;stroke-width:0.5;"/><text fill="#000000" font-family="sans-serif" font-size="14" lengthAdjust="spacing" textLength="101" x="385.5678" y="61.7611">Access to app</text></g><g id="elem_PIAF"><ellipse cx="439.2487" cy="142.9497" fill="#F1F1F1" rx="150.2487" ry="32.4497" style="stroke:#181818;stroke-width:0.5;"/><text fill="#000000" font-family="sans-serif" font-size="14" lengthAdjust="spacing" textLength="271" x="303.7487" y="145.7964">Provide information about the facility</text></g><g id="elem_SSP"><ellipse cx="438.8822" cy="233.0764" fill="#F1F1F1" rx="100.8822" ry="22.5764" style="stroke:#181818;stroke-width:0.5;"/><text fill="#000000" font-family="sans-serif" font-size="14" lengthAdjust="spacing" textLength="166" x="355.8822" y="235.9231">Select Sponsoring plan</text></g><g id="elem_P"><ellipse cx="781.163" cy="233.0236" fill="#F1F1F1" rx="29.163" ry="14.5236" style="stroke:#181818;stroke-width:0.5;"/><text fill="#000000" font-family="sans-serif" font-size="14" lengthAdjust="spacing" textLength="25" x="768.663" y="235.8703">Pay</text></g><g id="elem_RF"><ellipse cx="438.9263" cy="309.7853" fill="#F1F1F1" rx="84.4263" ry="19.2853" style="stroke:#181818;stroke-width:0.5;"/><text fill="#000000" font-family="sans-serif" font-size="14" lengthAdjust="spacing" textLength="129" x="374.305" y="312.6739">Recieve feedback</text></g><!--entity b--><g id="elem_b"><ellipse cx="195.5" cy="181.5" fill="#F1F1F1" rx="8" ry="8" style="stroke:#181818;stroke-width:0.5;"/><line style="stroke:#181818;stroke-width:0.5;" x1="193.5562" x2="203.2603" y1="189.2603" y2="179.5562"/><path d="M195.5,189.5 L195.5,216.5 M182.5,197.5 L208.5,197.5 M195.5,216.5 L182.5,231.5 M195.5,216.5 L208.5,231.5 " fill="none" style="stroke:#181818;stroke-width:0.5;"/><text fill="#000000" font-family="sans-serif" font-size="14" lengthAdjust="spacing" textLength="61" x="165" y="245.9951">Business</text></g><!--link r to b--><g id="link_r_b"><path d="M102.096,181.374 C122.171,187.811 129.1872,190.0611 147.7662,196.0171 " fill="none" id="r-to-b" style="stroke:#181818;stroke-width:1.0;"/><polygon fill="none" points="164.907,201.512,149.5979,190.3035,145.9346,201.7307,164.907,201.512" style="stroke:#181818;stroke-width:1.0;"/></g><!--link h to b--><g id="link_h_b"><path d="M82.2691,270.114 C103.776,258.786 123.383,248.4582 148.705,235.1212 " fill="none" id="h-to-b" style="stroke:#181818;stroke-width:1.0;"/><polygon fill="none" points="164.631,226.733,145.9089,229.8125,151.501,240.4299,164.631,226.733" style="stroke:#181818;stroke-width:1.0;"/></g><!--link b to ATA--><g id="link_b_ATA"><path d="M209.12,172.742 C219.836,146.286 237.86,112.467 265,93 C294.133,72.104 326.8101,63.6631 360.1811,59.9351 " fill="none" id="b-to-ATA" style="stroke:#181818;stroke-width:1.0;"/><polygon fill="#181818" points="366.144,59.269,356.7555,56.2929,361.1749,59.8241,357.6437,64.2435,366.144,59.269" style="stroke:#181818;stroke-width:1.0;"/></g><!--link b to PIAF--><g id="link_b_PIAF"><path d="M226.296,199.915 C235.739,196.556 246.256,192.972 256,190 C282.376,181.956 305.36,175.6039 332.101,168.6899 " fill="none" id="b-to-PIAF" style="stroke:#181818;stroke-width:1.0;"/><polygon fill="#181818" points="337.91,167.188,328.1952,165.5683,333.0692,168.4396,330.1978,173.3136,337.91,167.188" style="stroke:#181818;stroke-width:1.0;"/></g><!--link b to SSP--><g id="link_b_SSP"><path d="M226.113,213.698 C255.774,216.4 297.0017,220.1557 339.3347,224.0117 " fill="none" id="b-to-SSP" style="stroke:#181818;stroke-width:1.0;"/><polygon fill="#181818" points="345.31,224.556,336.71,219.7561,340.3306,224.1024,335.9843,227.7231,345.31,224.556" style="stroke:#181818;stroke-width:1.0;"/></g><!--link b to RF--><g id="link_b_RF"><path d="M226.241,244.19 C237.418,254.852 250.865,265.7635 265,273 C294.527,288.1162 324.0152,296.0557 355.0822,301.3485 " fill="none" id="b-to-RF" style="stroke:#181818;stroke-width:1.0;"/><polygon fill="#181818" points="360.997,302.3562,352.7966,296.9015,356.068,301.5165,351.453,304.7879,360.997,302.3562" style="stroke:#181818;stroke-width:1.0;"/></g><!--reverse link SSP to P--><g id="link_SSP_P"><path d="M558.172,233 C630.845,233 706.122,233 751.987,233 " fill="none" id="SSP-backto-P" style="stroke:#181818;stroke-width:1.0;stroke-dasharray:7.0,7.0;"/><polygon fill="none" points="540.172,233,558.172,239,558.172,227,540.172,233" style="stroke:#181818;stroke-width:1.0;"/><text fill="#000000" font-family="sans-serif" font-size="13" lengthAdjust="spacing" textLength="52" x="620" y="229.0669">extends</text></g><!--link ATA to SI--><g id="link_ATA_SI"><path d="M512.105,58.212 C568.147,58.377 639.721,58.5874 696.975,58.7554 " fill="none" id="ATA-to-SI" style="stroke:#181818;stroke-width:1.0;stroke-dasharray:7.0,7.0;"/><polygon fill="#181818" points="702.975,58.773,693.9868,54.7466,697.975,58.7583,693.9633,62.7466,702.975,58.773" style="stroke:#181818;stroke-width:1.0;"/><text fill="#000000" font-family="sans-serif" font-size="13" lengthAdjust="spacing" textLength="52" x="620" y="55.0669">includes</text></g><!--SRC=[JL0nJiGm4EpzYjLLK2JNfuWKYXFfeeGFR9nDOc5iotOE4CVVMTiSeflPzSpiMDCQ8LhmQjiZBCgJZCeQ8H90isc22qgbLLGKu4iq8uM8XqSJcpDW02-QPnj95xQBRo6QfoCeGo6KsSncK5Mtbj5-1yAXVCMDu7H_3Bs9v5UKTE8SU9ZKPa0PE4D6XtjCPbFFgqxA9E2pqPLnzzBnVF3sgXPYrMhz6wOYWBCzkE5Ei9OUdramzDqbXP3cdZ0vQuBrocpWD9gID0t94d_VCnv9Ahgo4T4oy_bvCLvIPJ53bR-mgjfyp1zlIzG_deoPCcAj6A0-N7tBumRe8v9PWc0Bg1VxRcfUz0qtalfOAFm0]--></g></svg>