<?xml version="1.0" encoding="us-ascii" standalone="no"?><svg xmlns="http://www.w3.org/2000/svg" xmlns:xlink="http://www.w3.org/1999/xlink" contentStyleType="text/css" height="594px" preserveAspectRatio="none" style="width:1017px;height:594px;background:#FFFFFF;" version="1.1" viewBox="0 0 1017 594" width="1017px" zoomAndPan="magnify"><defs/><g><text fill="#000000" font-family="sans-serif" font-size="14" font-weight="bold" lengthAdjust="spacing" textLength="221" x="391" y="22.9951">MaghrebTrip Class Diagram.</text><!--class Tourist--><g id="elem_Tourist"><rect codeLine="4" fill="#F1F1F1" height="162.0781" id="Tourist" rx="2.5" ry="2.5" style="stroke:#181818;stroke-width:0.5;" width="169" x="112" y="424.9669"/><ellipse cx="168.25" cy="440.9669" fill="#ADD1B2" rx="11" ry="11" style="stroke:#181818;stroke-width:1.0;"/><path d="M171.2188,446.6075 Q170.6406,446.9044 170,447.045 Q169.3594,447.2012 168.6563,447.2012 Q166.1563,447.2012 164.8281,445.5606 Q163.5156,443.9044 163.5156,440.7794 Q163.5156,437.6544 164.8281,435.9981 Q166.1563,434.3419 168.6563,434.3419 Q169.3594,434.3419 170,434.4981 Q170.6563,434.6544 171.2188,434.9512 L171.2188,437.67 Q170.5938,437.0919 170,436.8262 Q169.4063,436.545 168.7813,436.545 Q167.4375,436.545 166.75,437.6231 Q166.0625,438.6856 166.0625,440.7794 Q166.0625,442.8731 166.75,443.9512 Q167.4375,445.0137 168.7813,445.0137 Q169.4063,445.0137 170,444.7481 Q170.5938,444.4669 171.2188,443.8887 L171.2188,446.6075 Z " fill="#000000"/><text fill="#000000" font-family="sans-serif" font-size="14" lengthAdjust="spacing" textLength="48" x="188.75" y="445.8136">Tourist</text><line style="stroke:#181818;stroke-width:0.5;" x1="113" x2="280" y1="456.9669" y2="456.9669"/><rect fill="none" height="6" style="stroke:#C82930;stroke-width:1.0;" width="6" x="120" y="467.6153"/><text fill="#000000" font-family="sans-serif" font-size="14" lengthAdjust="spacing" textLength="114" x="132" y="473.962">touristId: Integer</text><rect fill="none" height="6" style="stroke:#C82930;stroke-width:1.0;" width="6" x="120" y="483.9122"/><text fill="#000000" font-family="sans-serif" font-size="14" lengthAdjust="spacing" textLength="114" x="132" y="490.2589">firstName: String</text><rect fill="none" height="6" style="stroke:#C82930;stroke-width:1.0;" width="6" x="120" y="500.2091"/><text fill="#000000" font-family="sans-serif" font-size="14" lengthAdjust="spacing" textLength="113" x="132" y="506.5557">lastName: String</text><rect fill="none" height="6" style="stroke:#C82930;stroke-width:1.0;" width="6" x="120" y="516.5059"/><text fill="#000000" font-family="sans-serif" font-size="14" lengthAdjust="spacing" textLength="85" x="132" y="522.8526">email: String</text><rect fill="none" height="6" style="stroke:#C82930;stroke-width:1.0;" width="6" x="120" y="532.8028"/><text fill="#000000" font-family="sans-serif" font-size="14" lengthAdjust="spacing" textLength="116" x="132" y="539.1495">password: String</text><rect fill="none" height="6" style="stroke:#C82930;stroke-width:1.0;" width="6" x="120" y="549.0997"/><text fill="#000000" font-family="sans-serif" font-size="14" lengthAdjust="spacing" textLength="118" x="132" y="555.4464">nationality: String</text><rect fill="none" height="6" style="stroke:#C82930;stroke-width:1.0;" width="6" x="120" y="565.3966"/><text fill="#000000" font-family="sans-serif" font-size="14" lengthAdjust="spacing" textLength="143" x="132" y="571.7432">preferences: String[]</text><line style="stroke:#181818;stroke-width:0.5;" x1="113" x2="280" y1="579.045" y2="579.045"/></g><!--class Trip--><g id="elem_Trip"><rect codeLine="14" fill="#F1F1F1" height="178.375" id="Trip" rx="2.5" ry="2.5" style="stroke:#181818;stroke-width:0.5;" width="145" x="7" y="169.5969"/><ellipse cx="62.25" cy="185.5969" fill="#ADD1B2" rx="11" ry="11" style="stroke:#181818;stroke-width:1.0;"/><path d="M65.2188,191.2375 Q64.6406,191.5344 64,191.675 Q63.3594,191.8313 62.6563,191.8313 Q60.1563,191.8313 58.8281,190.1906 Q57.5156,188.5344 57.5156,185.4094 Q57.5156,182.2844 58.8281,180.6281 Q60.1563,178.9719 62.6563,178.9719 Q63.3594,178.9719 64,179.1281 Q64.6563,179.2844 65.2188,179.5813 L65.2188,182.3 Q64.5938,181.7219 64,181.4563 Q63.4063,181.175 62.7813,181.175 Q61.4375,181.175 60.75,182.2531 Q60.0625,183.3156 60.0625,185.4094 Q60.0625,187.5031 60.75,188.5813 Q61.4375,189.6438 62.7813,189.6438 Q63.4063,189.6438 64,189.3781 Q64.5938,189.0969 65.2188,188.5188 L65.2188,191.2375 Z " fill="#000000"/><text fill="#000000" font-family="sans-serif" font-size="14" lengthAdjust="spacing" textLength="26" x="82.75" y="190.4436">Trip</text><line style="stroke:#181818;stroke-width:0.5;" x1="8" x2="151" y1="201.5969" y2="201.5969"/><rect fill="none" height="6" style="stroke:#C82930;stroke-width:1.0;" width="6" x="15" y="212.2453"/><text fill="#000000" font-family="sans-serif" font-size="14" lengthAdjust="spacing" textLength="92" x="27" y="218.592">tripId: Integer</text><rect fill="none" height="6" style="stroke:#C82930;stroke-width:1.0;" width="6" x="15" y="228.5422"/><text fill="#000000" font-family="sans-serif" font-size="14" lengthAdjust="spacing" textLength="96" x="27" y="234.8889">checkIn: Date</text><rect fill="none" height="6" style="stroke:#C82930;stroke-width:1.0;" width="6" x="15" y="244.8391"/><text fill="#000000" font-family="sans-serif" font-size="14" lengthAdjust="spacing" textLength="109" x="27" y="251.1857">checkOut: Date</text><rect fill="none" height="6" style="stroke:#C82930;stroke-width:1.0;" width="6" x="15" y="261.1359"/><text fill="#000000" font-family="sans-serif" font-size="14" lengthAdjust="spacing" textLength="106" x="27" y="267.4826">adults: Number</text><rect fill="none" height="6" style="stroke:#C82930;stroke-width:1.0;" width="6" x="15" y="277.4328"/><text fill="#000000" font-family="sans-serif" font-size="14" lengthAdjust="spacing" textLength="119" x="27" y="283.7795">children: Number</text><rect fill="none" height="6" style="stroke:#C82930;stroke-width:1.0;" width="6" x="15" y="293.7297"/><text fill="#000000" font-family="sans-serif" font-size="14" lengthAdjust="spacing" textLength="110" x="27" y="300.0764">infants: Number</text><rect fill="none" height="6" style="stroke:#C82930;stroke-width:1.0;" width="6" x="15" y="310.0266"/><text fill="#000000" font-family="sans-serif" font-size="14" lengthAdjust="spacing" textLength="95" x="27" y="316.3732">pets: Number</text><rect fill="none" height="6" style="stroke:#C82930;stroke-width:1.0;" width="6" x="15" y="326.3234"/><text fill="#000000" font-family="sans-serif" font-size="14" lengthAdjust="spacing" textLength="108" x="27" y="332.6701">rooms: Number</text><line style="stroke:#181818;stroke-width:0.5;" x1="8" x2="151" y1="339.9719" y2="339.9719"/></g><!--class City--><g id="elem_City"><rect codeLine="25" fill="#F1F1F1" height="129.4844" id="City" rx="2.5" ry="2.5" style="stroke:#181818;stroke-width:0.5;" width="119" x="233" y="194.0369"/><ellipse cx="275.9" cy="210.0369" fill="#ADD1B2" rx="11" ry="11" style="stroke:#181818;stroke-width:1.0;"/><path d="M278.8688,215.6775 Q278.2906,215.9744 277.65,216.115 Q277.0094,216.2713 276.3063,216.2713 Q273.8063,216.2713 272.4781,214.6306 Q271.1656,212.9744 271.1656,209.8494 Q271.1656,206.7244 272.4781,205.0681 Q273.8063,203.4119 276.3063,203.4119 Q277.0094,203.4119 277.65,203.5681 Q278.3063,203.7244 278.8688,204.0213 L278.8688,206.74 Q278.2438,206.1619 277.65,205.8963 Q277.0563,205.615 276.4313,205.615 Q275.0875,205.615 274.4,206.6931 Q273.7125,207.7556 273.7125,209.8494 Q273.7125,211.9431 274.4,213.0213 Q275.0875,214.0838 276.4313,214.0838 Q277.0563,214.0838 277.65,213.8181 Q278.2438,213.5369 278.8688,212.9588 L278.8688,215.6775 Z " fill="#000000"/><text fill="#000000" font-family="sans-serif" font-size="14" lengthAdjust="spacing" textLength="25" x="296.1" y="214.8836">City</text><line style="stroke:#181818;stroke-width:0.5;" x1="234" x2="351" y1="226.0369" y2="226.0369"/><rect fill="none" height="6" style="stroke:#C82930;stroke-width:1.0;" width="6" x="241" y="236.6853"/><text fill="#000000" font-family="sans-serif" font-size="14" lengthAdjust="spacing" textLength="93" x="253" y="243.032">cityId: Integer</text><rect fill="none" height="6" style="stroke:#C82930;stroke-width:1.0;" width="6" x="241" y="252.9822"/><text fill="#000000" font-family="sans-serif" font-size="14" lengthAdjust="spacing" textLength="88" x="253" y="259.3289">name: String</text><rect fill="none" height="6" style="stroke:#C82930;stroke-width:1.0;" width="6" x="241" y="269.2791"/><text fill="#000000" font-family="sans-serif" font-size="14" lengthAdjust="spacing" textLength="91" x="253" y="275.6257">image: byte[]</text><rect fill="none" height="6" style="stroke:#C82930;stroke-width:1.0;" width="6" x="241" y="285.5759"/><text fill="#000000" font-family="sans-serif" font-size="14" lengthAdjust="spacing" textLength="89" x="253" y="291.9226">about: String</text><rect fill="none" height="6" style="stroke:#C82930;stroke-width:1.0;" width="6" x="241" y="301.8728"/><text fill="#000000" font-family="sans-serif" font-size="14" lengthAdjust="spacing" textLength="88" x="253" y="308.2195">rating: String</text><line style="stroke:#181818;stroke-width:0.5;" x1="234" x2="351" y1="315.5213" y2="315.5213"/></g><!--class Plan--><g id="elem_Plan"><rect codeLine="33" fill="#F1F1F1" height="64.2969" id="Plan" rx="2.5" ry="2.5" style="stroke:#181818;stroke-width:0.5;" width="125" x="433" y="226.6369"/><ellipse cx="476.8" cy="242.6369" fill="#ADD1B2" rx="11" ry="11" style="stroke:#181818;stroke-width:1.0;"/><path d="M479.7688,248.2775 Q479.1906,248.5744 478.55,248.715 Q477.9094,248.8712 477.2063,248.8712 Q474.7063,248.8712 473.3781,247.2306 Q472.0656,245.5744 472.0656,242.4494 Q472.0656,239.3244 473.3781,237.6681 Q474.7063,236.0119 477.2063,236.0119 Q477.9094,236.0119 478.55,236.1681 Q479.2063,236.3244 479.7688,236.6212 L479.7688,239.34 Q479.1438,238.7619 478.55,238.4962 Q477.9563,238.215 477.3313,238.215 Q475.9875,238.215 475.3,239.2931 Q474.6125,240.3556 474.6125,242.4494 Q474.6125,244.5431 475.3,245.6212 Q475.9875,246.6837 477.3313,246.6837 Q477.9563,246.6837 478.55,246.4181 Q479.1438,246.1369 479.7688,245.5587 L479.7688,248.2775 Z " fill="#000000"/><text fill="#000000" font-family="sans-serif" font-size="14" lengthAdjust="spacing" textLength="29" x="497.2" y="247.4836">Plan</text><line style="stroke:#181818;stroke-width:0.5;" x1="434" x2="557" y1="258.6369" y2="258.6369"/><rect fill="none" height="6" style="stroke:#C82930;stroke-width:1.0;" width="6" x="441" y="269.2853"/><text fill="#000000" font-family="sans-serif" font-size="14" lengthAdjust="spacing" textLength="99" x="453" y="275.632">planId: Integer</text><line style="stroke:#181818;stroke-width:0.5;" x1="434" x2="557" y1="282.9338" y2="282.9338"/></g><!--class Schedule--><g id="elem_Schedule"><rect codeLine="37" fill="#F1F1F1" height="96.8906" id="Schedule" rx="2.5" ry="2.5" style="stroke:#181818;stroke-width:0.5;" width="153" x="570" y="457.5669"/><ellipse cx="610.2" cy="473.5669" fill="#ADD1B2" rx="11" ry="11" style="stroke:#181818;stroke-width:1.0;"/><path d="M613.1688,479.2075 Q612.5906,479.5044 611.95,479.645 Q611.3094,479.8013 610.6063,479.8013 Q608.1063,479.8013 606.7781,478.1606 Q605.4656,476.5044 605.4656,473.3794 Q605.4656,470.2544 606.7781,468.5981 Q608.1063,466.9419 610.6063,466.9419 Q611.3094,466.9419 611.95,467.0981 Q612.6063,467.2544 613.1688,467.5513 L613.1688,470.27 Q612.5438,469.6919 611.95,469.4263 Q611.3563,469.145 610.7313,469.145 Q609.3875,469.145 608.7,470.2231 Q608.0125,471.2856 608.0125,473.3794 Q608.0125,475.4731 608.7,476.5513 Q609.3875,477.6138 610.7313,477.6138 Q611.3563,477.6138 611.95,477.3481 Q612.5438,477.0669 613.1688,476.4888 L613.1688,479.2075 Z " fill="#000000"/><text fill="#000000" font-family="sans-serif" font-size="14" lengthAdjust="spacing" textLength="65" x="629.8" y="478.4136">Schedule</text><line style="stroke:#181818;stroke-width:0.5;" x1="571" x2="722" y1="489.5669" y2="489.5669"/><rect fill="none" height="6" style="stroke:#C82930;stroke-width:1.0;" width="6" x="578" y="500.2153"/><text fill="#000000" font-family="sans-serif" font-size="14" lengthAdjust="spacing" textLength="127" x="590" y="506.562">dayOfWeek: String</text><rect fill="none" height="6" style="stroke:#C82930;stroke-width:1.0;" width="6" x="578" y="516.5122"/><text fill="#000000" font-family="sans-serif" font-size="14" lengthAdjust="spacing" textLength="114" x="590" y="522.8589">startTime: String</text><rect fill="none" height="6" style="stroke:#C82930;stroke-width:1.0;" width="6" x="578" y="532.8091"/><text fill="#000000" font-family="sans-serif" font-size="14" lengthAdjust="spacing" textLength="110" x="590" y="539.1557">endTime: String</text><line style="stroke:#181818;stroke-width:0.5;" x1="571" x2="722" y1="546.4575" y2="546.4575"/></g><!--class Attraction--><g id="elem_Attraction"><rect codeLine="43" fill="#F1F1F1" height="178.375" id="Attraction" rx="2.5" ry="2.5" style="stroke:#181818;stroke-width:0.5;" width="161" x="661" y="169.5969"/><ellipse cx="704.35" cy="185.5969" fill="#A9DCDF" rx="11" ry="11" style="stroke:#181818;stroke-width:1.0;"/><path d="M704.4594,180.9406 L703.3031,186.0188 L705.6313,186.0188 L704.4594,180.9406 Z M702.975,178.7063 L705.9594,178.7063 L709.3188,191.0969 L706.8656,191.0969 L706.1,188.0344 L702.8188,188.0344 L702.0688,191.0969 L699.6313,191.0969 L702.975,178.7063 Z " fill="#000000"/><text fill="#000000" font-family="sans-serif" font-size="14" font-style="italic" lengthAdjust="spacing" textLength="66" x="724.65" y="190.4436">Attraction</text><line style="stroke:#181818;stroke-width:0.5;" x1="662" x2="821" y1="201.5969" y2="201.5969"/><rect fill="none" height="6" style="stroke:#C82930;stroke-width:1.0;" width="6" x="669" y="212.2453"/><text fill="#000000" font-family="sans-serif" font-size="14" lengthAdjust="spacing" textLength="135" x="681" y="218.592">attractionId: Integer</text><rect fill="none" height="6" style="stroke:#C82930;stroke-width:1.0;" width="6" x="669" y="228.5422"/><text fill="#000000" font-family="sans-serif" font-size="14" lengthAdjust="spacing" textLength="88" x="681" y="234.8889">name: String</text><rect fill="none" height="6" style="stroke:#C82930;stroke-width:1.0;" width="6" x="669" y="244.8391"/><text fill="#000000" font-family="sans-serif" font-size="14" lengthAdjust="spacing" textLength="91" x="681" y="251.1857">image: byte[]</text><rect fill="none" height="6" style="stroke:#C82930;stroke-width:1.0;" width="6" x="669" y="261.1359"/><text fill="#000000" font-family="sans-serif" font-size="14" lengthAdjust="spacing" textLength="79" x="681" y="267.4826">type: String</text><rect fill="none" height="6" style="stroke:#C82930;stroke-width:1.0;" width="6" x="669" y="277.4328"/><text fill="#000000" font-family="sans-serif" font-size="14" lengthAdjust="spacing" textLength="126" x="681" y="283.7795">description: String</text><rect fill="none" height="6" style="stroke:#C82930;stroke-width:1.0;" width="6" x="669" y="293.7297"/><text fill="#000000" font-family="sans-serif" font-size="14" lengthAdjust="spacing" textLength="103" x="681" y="300.0764">location: String</text><rect fill="none" height="6" style="stroke:#C82930;stroke-width:1.0;" width="6" x="669" y="310.0266"/><text fill="#000000" font-family="sans-serif" font-size="14" lengthAdjust="spacing" textLength="77" x="681" y="316.3732">rating: float</text><rect fill="none" height="6" style="stroke:#C82930;stroke-width:1.0;" width="6" x="669" y="326.3234"/><text fill="#000000" font-family="sans-serif" font-size="14" lengthAdjust="spacing" textLength="101" x="681" y="332.6701">sponsored: int</text><line style="stroke:#181818;stroke-width:0.5;" x1="662" x2="821" y1="339.9719" y2="339.9719"/></g><!--class Hotel--><g id="elem_Hotel"><rect codeLine="53" fill="#F1F1F1" height="80.5938" id="Hotel" rx="2.5" ry="2.5" style="stroke:#181818;stroke-width:0.5;" width="153" x="857" y="218.4869"/><ellipse cx="911.25" cy="234.4869" fill="#ADD1B2" rx="11" ry="11" style="stroke:#181818;stroke-width:1.0;"/><path d="M914.2188,240.1275 Q913.6406,240.4244 913,240.565 Q912.3594,240.7213 911.6563,240.7213 Q909.1563,240.7213 907.8281,239.0806 Q906.5156,237.4244 906.5156,234.2994 Q906.5156,231.1744 907.8281,229.5181 Q909.1563,227.8619 911.6563,227.8619 Q912.3594,227.8619 913,228.0181 Q913.6563,228.1744 914.2188,228.4713 L914.2188,231.19 Q913.5938,230.6119 913,230.3463 Q912.4063,230.065 911.7813,230.065 Q910.4375,230.065 909.75,231.1431 Q909.0625,232.2056 909.0625,234.2994 Q909.0625,236.3931 909.75,237.4713 Q910.4375,238.5338 911.7813,238.5338 Q912.4063,238.5338 913,238.2681 Q913.5938,237.9869 914.2188,237.4088 L914.2188,240.1275 Z " fill="#000000"/><text fill="#000000" font-family="sans-serif" font-size="14" lengthAdjust="spacing" textLength="36" x="931.75" y="239.3336">Hotel</text><line style="stroke:#181818;stroke-width:0.5;" x1="858" x2="1009" y1="250.4869" y2="250.4869"/><rect fill="none" height="6" style="stroke:#C82930;stroke-width:1.0;" width="6" x="865" y="261.1353"/><text fill="#000000" font-family="sans-serif" font-size="14" lengthAdjust="spacing" textLength="127" x="877" y="267.482">roomTypes: String</text><rect fill="none" height="6" style="stroke:#C82930;stroke-width:1.0;" width="6" x="865" y="277.4322"/><text fill="#000000" font-family="sans-serif" font-size="14" lengthAdjust="spacing" textLength="116" x="877" y="283.7789">amenities: String</text><line style="stroke:#181818;stroke-width:0.5;" x1="858" x2="1009" y1="291.0806" y2="291.0806"/></g><!--class Restaurant--><g id="elem_Restaurant"><rect codeLine="57" fill="#F1F1F1" height="80.5938" id="Restaurant" rx="2.5" ry="2.5" style="stroke:#181818;stroke-width:0.5;" width="158" x="757.5" y="465.7069"/><ellipse cx="795" cy="481.7069" fill="#ADD1B2" rx="11" ry="11" style="stroke:#181818;stroke-width:1.0;"/><path d="M797.9688,487.3475 Q797.3906,487.6444 796.75,487.785 Q796.1094,487.9412 795.4063,487.9412 Q792.9063,487.9412 791.5781,486.3006 Q790.2656,484.6444 790.2656,481.5194 Q790.2656,478.3944 791.5781,476.7381 Q792.9063,475.0819 795.4063,475.0819 Q796.1094,475.0819 796.75,475.2381 Q797.4063,475.3944 797.9688,475.6912 L797.9688,478.41 Q797.3438,477.8319 796.75,477.5662 Q796.1563,477.285 795.5313,477.285 Q794.1875,477.285 793.5,478.3631 Q792.8125,479.4256 792.8125,481.5194 Q792.8125,483.6131 793.5,484.6912 Q794.1875,485.7537 795.5313,485.7537 Q796.1563,485.7537 796.75,485.4881 Q797.3438,485.2069 797.9688,484.6287 L797.9688,487.3475 Z " fill="#000000"/><text fill="#000000" font-family="sans-serif" font-size="14" lengthAdjust="spacing" textLength="76" x="814" y="486.5536">Restaurant</text><line style="stroke:#181818;stroke-width:0.5;" x1="758.5" x2="914.5" y1="497.7069" y2="497.7069"/><rect fill="none" height="6" style="stroke:#C82930;stroke-width:1.0;" width="6" x="765.5" y="508.3553"/><text fill="#000000" font-family="sans-serif" font-size="14" lengthAdjust="spacing" textLength="132" x="777.5" y="514.702">cuisineType: String</text><rect fill="none" height="6" style="stroke:#C82930;stroke-width:1.0;" width="6" x="765.5" y="524.6522"/><text fill="#000000" font-family="sans-serif" font-size="14" lengthAdjust="spacing" textLength="126" x="777.5" y="530.9989">affordability: String</text><line style="stroke:#181818;stroke-width:0.5;" x1="758.5" x2="914.5" y1="538.3006" y2="538.3006"/></g><!--class Monument--><g id="elem_Monument"><rect codeLine="61" fill="#F1F1F1" height="64.2969" id="Monument" rx="2.5" ry="2.5" style="stroke:#181818;stroke-width:0.5;" width="121" x="594" y="44.2969"/><ellipse cx="615.3" cy="60.2969" fill="#ADD1B2" rx="11" ry="11" style="stroke:#181818;stroke-width:1.0;"/><path d="M618.2688,65.9375 Q617.6906,66.2344 617.05,66.375 Q616.4094,66.5313 615.7063,66.5313 Q613.2063,66.5313 611.8781,64.8906 Q610.5656,63.2344 610.5656,60.1094 Q610.5656,56.9844 611.8781,55.3281 Q613.2063,53.6719 615.7063,53.6719 Q616.4094,53.6719 617.05,53.8281 Q617.7063,53.9844 618.2688,54.2813 L618.2688,57 Q617.6438,56.4219 617.05,56.1563 Q616.4563,55.875 615.8313,55.875 Q614.4875,55.875 613.8,56.9531 Q613.1125,58.0156 613.1125,60.1094 Q613.1125,62.2031 613.8,63.2813 Q614.4875,64.3438 615.8313,64.3438 Q616.4563,64.3438 617.05,64.0781 Q617.6438,63.7969 618.2688,63.2188 L618.2688,65.9375 Z " fill="#000000"/><text fill="#000000" font-family="sans-serif" font-size="14" lengthAdjust="spacing" textLength="75" x="630.7" y="65.1436">Monument</text><line style="stroke:#181818;stroke-width:0.5;" x1="595" x2="714" y1="76.2969" y2="76.2969"/><rect fill="none" height="6" style="stroke:#C82930;stroke-width:1.0;" width="6" x="602" y="86.9453"/><text fill="#000000" font-family="sans-serif" font-size="14" lengthAdjust="spacing" textLength="95" x="614" y="93.292">history: String</text><line style="stroke:#181818;stroke-width:0.5;" x1="595" x2="714" y1="100.5938" y2="100.5938"/></g><!--class Entertainment--><g id="elem_Entertainment"><rect codeLine="64" fill="#F1F1F1" height="64.2969" id="Entertainment" rx="2.5" ry="2.5" style="stroke:#181818;stroke-width:0.5;" width="159" x="750" y="44.2969"/><ellipse cx="778.05" cy="60.2969" fill="#ADD1B2" rx="11" ry="11" style="stroke:#181818;stroke-width:1.0;"/><path d="M781.0188,65.9375 Q780.4406,66.2344 779.8,66.375 Q779.1594,66.5313 778.4563,66.5313 Q775.9563,66.5313 774.6281,64.8906 Q773.3156,63.2344 773.3156,60.1094 Q773.3156,56.9844 774.6281,55.3281 Q775.9563,53.6719 778.4563,53.6719 Q779.1594,53.6719 779.8,53.8281 Q780.4563,53.9844 781.0188,54.2813 L781.0188,57 Q780.3938,56.4219 779.8,56.1563 Q779.2063,55.875 778.5813,55.875 Q777.2375,55.875 776.55,56.9531 Q775.8625,58.0156 775.8625,60.1094 Q775.8625,62.2031 776.55,63.2813 Q777.2375,64.3438 778.5813,64.3438 Q779.2063,64.3438 779.8,64.0781 Q780.3938,63.7969 781.0188,63.2188 L781.0188,65.9375 Z " fill="#000000"/><text fill="#000000" font-family="sans-serif" font-size="14" lengthAdjust="spacing" textLength="98" x="794.95" y="65.1436">Entertainment</text><line style="stroke:#181818;stroke-width:0.5;" x1="751" x2="908" y1="76.2969" y2="76.2969"/><rect fill="none" height="6" style="stroke:#C82930;stroke-width:1.0;" width="6" x="758" y="86.9453"/><text fill="#000000" font-family="sans-serif" font-size="14" lengthAdjust="spacing" textLength="133" x="770" y="93.292">availability: Boolean</text><line style="stroke:#181818;stroke-width:0.5;" x1="751" x2="908" y1="100.5938" y2="100.5938"/></g><!--class Feedback--><g id="elem_Feedback"><rect codeLine="68" fill="#F1F1F1" height="113.1875" id="Feedback" rx="2.5" ry="2.5" style="stroke:#181818;stroke-width:0.5;" width="160" x="371.5" y="449.4169"/><ellipse cx="413.5" cy="465.4169" fill="#ADD1B2" rx="11" ry="11" style="stroke:#181818;stroke-width:1.0;"/><path d="M416.4688,471.0575 Q415.8906,471.3544 415.25,471.495 Q414.6094,471.6513 413.9063,471.6513 Q411.4063,471.6513 410.0781,470.0106 Q408.7656,468.3544 408.7656,465.2294 Q408.7656,462.1044 410.0781,460.4481 Q411.4063,458.7919 413.9063,458.7919 Q414.6094,458.7919 415.25,458.9481 Q415.9063,459.1044 416.4688,459.4013 L416.4688,462.12 Q415.8438,461.5419 415.25,461.2763 Q414.6563,460.995 414.0313,460.995 Q412.6875,460.995 412,462.0731 Q411.3125,463.1356 411.3125,465.2294 Q411.3125,467.3231 412,468.4013 Q412.6875,469.4638 414.0313,469.4638 Q414.6563,469.4638 415.25,469.1981 Q415.8438,468.9169 416.4688,468.3388 L416.4688,471.0575 Z " fill="#000000"/><text fill="#000000" font-family="sans-serif" font-size="14" lengthAdjust="spacing" textLength="68" x="433.5" y="470.2636">Feedback</text><line style="stroke:#181818;stroke-width:0.5;" x1="372.5" x2="530.5" y1="481.4169" y2="481.4169"/><rect fill="none" height="6" style="stroke:#C82930;stroke-width:1.0;" width="6" x="379.5" y="492.0653"/><text fill="#000000" font-family="sans-serif" font-size="14" lengthAdjust="spacing" textLength="134" x="391.5" y="498.412">feedbackId: Integer</text><rect fill="none" height="6" style="stroke:#C82930;stroke-width:1.0;" width="6" x="379.5" y="508.3622"/><text fill="#000000" font-family="sans-serif" font-size="14" lengthAdjust="spacing" textLength="77" x="391.5" y="514.7089">rating: float</text><rect fill="none" height="6" style="stroke:#C82930;stroke-width:1.0;" width="6" x="379.5" y="524.6591"/><text fill="#000000" font-family="sans-serif" font-size="14" lengthAdjust="spacing" textLength="115" x="391.5" y="531.0057">comment: String</text><rect fill="none" height="6" style="stroke:#C82930;stroke-width:1.0;" width="6" x="379.5" y="540.9559"/><text fill="#000000" font-family="sans-serif" font-size="14" lengthAdjust="spacing" textLength="73" x="391.5" y="547.3026">date: Date</text><line style="stroke:#181818;stroke-width:0.5;" x1="372.5" x2="530.5" y1="554.6044" y2="554.6044"/></g><!--reverse link Attraction to Restaurant--><g id="link_Attraction_Restaurant"><path codeLine="75" d="M782.3026,365.1013 C797.8226,405.1613 808.88,433.7069 821.1,465.2669 " fill="none" id="Attraction-backto-Restaurant" style="stroke:#181818;stroke-width:1.0;"/><polygon fill="none" points="775.8,348.3169,776.7078,367.2688,787.8974,362.9337,775.8,348.3169" style="stroke:#181818;stroke-width:1.0;"/></g><!--reverse link Attraction to Hotel--><g id="link_Attraction_Hotel"><path codeLine="76" d="M840.13,258.7769 C851.73,258.7769 845.33,258.7769 856.93,258.7769 " fill="none" id="Attraction-backto-Hotel" style="stroke:#181818;stroke-width:1.0;"/><polygon fill="none" points="822.13,258.7769,840.13,264.7769,840.13,252.7769,822.13,258.7769" style="stroke:#181818;stroke-width:1.0;"/></g><!--link Monument to Attraction--><g id="link_Monument_Attraction"><path codeLine="77" d="M669.65,108.8569 C677.83,125.8069 680.5579,131.4653 691.0379,153.1853 " fill="none" id="Monument-to-Attraction" style="stroke:#181818;stroke-width:1.0;"/><polygon fill="none" points="698.86,169.3969,696.4417,150.578,685.634,155.7927,698.86,169.3969" style="stroke:#181818;stroke-width:1.0;"/></g><!--link Entertainment to Attraction--><g id="link_Entertainment_Attraction"><path codeLine="78" d="M814.17,108.8569 C805.9,125.8069 803.1246,131.5005 792.5246,153.2205 " fill="none" id="Entertainment-to-Attraction" style="stroke:#181818;stroke-width:1.0;"/><polygon fill="none" points="784.63,169.3969,797.9167,155.852,787.1324,150.589,784.63,169.3969" style="stroke:#181818;stroke-width:1.0;"/></g><!--link Trip to Tourist--><g id="link_Trip_Tourist"><path codeLine="80" d="M121.74,348.3169 C133.65,373.2869 146.54,400.2969 158.21,424.7569 " fill="none" id="Trip-Tourist" style="stroke:#181818;stroke-width:1.0;"/><polygon fill="#000000" points="145.347,382.0206,146.5893,391.4497,151.8943,388.9186,145.347,382.0206" style="stroke:#000000;stroke-width:1.0;"/><text fill="#000000" font-family="sans-serif" font-size="13" lengthAdjust="spacing" textLength="34" x="156.5" y="391.0338">plans</text><text fill="#000000" font-family="sans-serif" font-size="13" lengthAdjust="spacing" textLength="24" x="100.1498" y="368.1213">1..n</text><text fill="#000000" font-family="sans-serif" font-size="13" lengthAdjust="spacing" textLength="8" x="146.4435" y="413.9255">1</text></g><!--link Trip to City--><g id="link_Trip_City"><path codeLine="81" d="M152.21,258.7769 C178.48,258.7769 207.81,258.7769 232.84,258.7769 " fill="none" id="Trip-City" style="stroke:#181818;stroke-width:1.0;"/><polygon fill="#000000" points="179.5,247.3433,170.4549,244.4044,170.4549,250.2822,179.5,247.3433" style="stroke:#000000;stroke-width:1.0;"/><text fill="#000000" font-family="sans-serif" font-size="13" lengthAdjust="spacing" textLength="31" x="183.5" y="251.8438">have</text><text fill="#000000" font-family="sans-serif" font-size="13" lengthAdjust="spacing" textLength="24" x="160.0192" y="271.5406">0..n</text><text fill="#000000" font-family="sans-serif" font-size="13" lengthAdjust="spacing" textLength="8" x="217.0814" y="254.9375">1</text></g><!--link Plan to Attraction--><g id="link_Plan_Attraction"><path codeLine="82" d="M558.21,258.7769 C589.39,258.7769 627.43,258.7769 660.75,258.7769 " fill="none" id="Plan-Attraction" style="stroke:#181818;stroke-width:1.0;"/><polygon fill="#000000" points="585,247.3433,575.9549,244.4044,575.9549,250.2822,585,247.3433" style="stroke:#000000;stroke-width:1.0;"/><text fill="#000000" font-family="sans-serif" font-size="13" lengthAdjust="spacing" textLength="54" x="589" y="251.8438">contains</text><text fill="#000000" font-family="sans-serif" font-size="13" lengthAdjust="spacing" textLength="24" x="565.9145" y="271.6232">0..n</text><text fill="#000000" font-family="sans-serif" font-size="13" lengthAdjust="spacing" textLength="8" x="644.9371" y="255.1578">3</text></g><!--link City to Plan--><g id="link_City_Plan"><path codeLine="83" d="M352.31,258.7769 C377.57,258.7769 407,258.7769 432.59,258.7769 " fill="none" id="City-Plan" style="stroke:#181818;stroke-width:1.0;"/><polygon fill="#000000" points="379.5,247.3433,370.4549,244.4044,370.4549,250.2822,379.5,247.3433" style="stroke:#000000;stroke-width:1.0;"/><text fill="#000000" font-family="sans-serif" font-size="13" lengthAdjust="spacing" textLength="31" x="383.5" y="251.8438">have</text><text fill="#000000" font-family="sans-serif" font-size="13" lengthAdjust="spacing" textLength="8" x="360.0868" y="254.9375">1</text><text fill="#000000" font-family="sans-serif" font-size="13" lengthAdjust="spacing" textLength="8" x="416.8535" y="254.9833">2</text></g><!--link Attraction to Feedback--><g id="link_Attraction_Feedback"><path codeLine="84" d="M660.72,328.0869 C615.64,366.2169 560.17,413.1169 517.68,449.0469 " fill="none" id="Attraction-Feedback" style="stroke:#181818;stroke-width:1.0;"/><polygon fill="#000000" points="597.6821,389.7618,606.4864,386.1654,602.691,381.6772,597.6821,389.7618" style="stroke:#000000;stroke-width:1.0;"/><text fill="#000000" font-family="sans-serif" font-size="13" lengthAdjust="spacing" textLength="53" x="610.5" y="391.0338">receives</text><text fill="#000000" font-family="sans-serif" font-size="13" lengthAdjust="spacing" textLength="8" x="644.9043" y="330.8573">1</text><text fill="#000000" font-family="sans-serif" font-size="13" lengthAdjust="spacing" textLength="24" x="500.2832" y="438.2653">0..n</text></g><!--link Tourist to Feedback--><g id="link_Tourist_Feedback"><path codeLine="85" d="M281.41,506.0069 C310.39,506.0069 342.68,506.0069 371.28,506.0069 " fill="none" id="Tourist-Feedback" style="stroke:#181818;stroke-width:1.0;"/><polygon fill="#000000" points="312.25,494.5733,303.2049,491.6344,303.2049,497.5122,312.25,494.5733" style="stroke:#000000;stroke-width:1.0;"/><text fill="#000000" font-family="sans-serif" font-size="13" lengthAdjust="spacing" textLength="33" x="316.25" y="499.0738">gives</text><text fill="#000000" font-family="sans-serif" font-size="13" lengthAdjust="spacing" textLength="8" x="289.0507" y="502.435">1</text><text fill="#000000" font-family="sans-serif" font-size="13" lengthAdjust="spacing" textLength="24" x="339.643" y="518.7001">0..n</text></g><!--link Attraction to Schedule--><g id="link_Attraction_Schedule"><path codeLine="86" d="M707.2,348.3169 C692.96,385.0769 677,426.2869 665.01,457.2169 " fill="none" id="Attraction-Schedule" style="stroke:#181818;stroke-width:1.0;"/><polygon fill="#000000" points="697.6937,391.1956,703.7018,383.8231,698.2209,381.6997,697.6937,391.1956" style="stroke:#000000;stroke-width:1.0;"/><text fill="#000000" font-family="sans-serif" font-size="13" lengthAdjust="spacing" textLength="31" x="708.5" y="391.0338">have</text><text fill="#000000" font-family="sans-serif" font-size="13" lengthAdjust="spacing" textLength="24" x="679.5105" y="368.1213">0..n</text><text fill="#000000" font-family="sans-serif" font-size="13" lengthAdjust="spacing" textLength="24" x="641.9255" y="446.3766">1..n</text></g><!--SRC=[dLHDZvim4BtpAopkH6ttnc6bRRRLvh2xLJTI3rKF0mp42jZ87b95RVzx1ySuDkcf9ypZUTwRBqXIZ-8PkeF1Qc_aABOzM2iU9NG6XasMPHTWhoSZBObVcH25eClRhYd5JX5sQ1pSIcFf1GOinHiPgJg7ylrR40UGVOACBFDJcoO15P3K2df9vvHii4M3gaQxuDz_P7-2spaJRvMFQv_r0UlZJfNY4GYloEj44GJDr1D7Vvc6AjoJVSEg2IXL2sf577456As7An9yRZalxxFcuzgdMbTD3j0nKfq9ELtdijApwuXZk6Ig2r3G-jA3ybeZ7sEjm7dZEd3Qw7aDd5_RRuZ7HC0I6DhBTKDLas0Syw6oPA0cFrCFvDwudpuy1E0_4gVpc58Qj3NtUWwNZf-kuGPSYjJs6kYIrQYLrGRPYLJ4zY-cdpHXx_tEJToph4r2iLKbIKReSlShSgacmzEnz7YILYhShwr3s_BWGoMJEL_2F6iriSOIvC2BfyqjxHFNpn185N7Xn5iMudxKkaTGrtP_Hcmgg8-UtVhNTJTkYrNhOLP9wy-BuzU71QBSYwduVHzrFxlKjEXNSCYpM7r8Crj_pPPVK_u-dxNukTcetFq3IZVgLjndxe-GltDV2bCuyjPLvG0dP89RZvXmbqSg9QUiPWjpBBUrJctcVSZTQeL0qPWxJbCiOPTobq8Oh56Uq3cBxPj_a3jFZ0Dxdqt8TjdSnSPV]--></g></svg>