<?xml version="1.0" encoding="us-ascii" standalone="no"?><svg xmlns="http://www.w3.org/2000/svg" xmlns:xlink="http://www.w3.org/1999/xlink" contentStyleType="text/css" height="506px" preserveAspectRatio="none" style="width:777px;height:506px;background:#FFFFFF;" version="1.1" viewBox="0 0 777 506" width="777px" zoomAndPan="magnify"><defs/><g><!--cluster Tourist Interface--><g id="cluster_Tourist Interface"><path d="M105.5,6 L245.5,6 A3.75,3.75 0 0 1 248,8.5 L255,28.2969 L767.5,28.2969 A2.5,2.5 0 0 1 770,30.7969 L770,496.5 A2.5,2.5 0 0 1 767.5,499 L105.5,499 A2.5,2.5 0 0 1 103,496.5 L103,8.5 A2.5,2.5 0 0 1 105.5,6 " fill="none" style="stroke:#000000;stroke-width:1.5;"/><line style="stroke:#000000;stroke-width:1.5;" x1="103" x2="255" y1="28.2969" y2="28.2969"/><text fill="#000000" font-family="sans-serif" font-size="14" font-weight="bold" lengthAdjust="spacing" textLength="139" x="107" y="20.9951">Tourist Interface</text></g><g id="elem_SI"><ellipse cx="632.6551" cy="59.031" fill="#F1F1F1" rx="78.1551" ry="18.031" style="stroke:#181818;stroke-width:0.5;"/><text fill="#000000" font-family="sans-serif" font-size="14" lengthAdjust="spacing" textLength="114" x="573.2659" y="62.6166">Sign in / Sign up</text></g><g id="elem_ATA"><ellipse cx="258.0678" cy="58.0136" fill="#F1F1F1" rx="73.0678" ry="17.0136" style="stroke:#181818;stroke-width:0.5;"/><text fill="#000000" font-family="sans-serif" font-size="14" lengthAdjust="spacing" textLength="101" x="204.5678" y="61.7611">Access to app</text></g><g id="elem_ETD"><ellipse cx="257.8658" cy="128.7732" fill="#F1F1F1" rx="81.8658" ry="18.7732" style="stroke:#181818;stroke-width:0.5;"/><text fill="#000000" font-family="sans-serif" font-size="14" lengthAdjust="spacing" textLength="123" x="195.3805" y="131.9463">Enter trip details</text></g><g id="elem_SPP"><ellipse cx="258.0368" cy="202.8074" fill="#F1F1F1" rx="87.0368" ry="19.8074" style="stroke:#181818;stroke-width:0.5;"/><text fill="#000000" font-family="sans-serif" font-size="14" lengthAdjust="spacing" textLength="135" x="190.5368" y="205.654">Select pricing plan</text></g><g id="elem_P"><ellipse cx="632.663" cy="203.0236" fill="#F1F1F1" rx="29.163" ry="14.5236" style="stroke:#181818;stroke-width:0.5;"/><text fill="#000000" font-family="sans-serif" font-size="14" lengthAdjust="spacing" textLength="25" x="620.163" y="205.8703">Pay</text></g><g id="elem_VAO"><ellipse cx="258.1626" cy="280.0325" fill="#F1F1F1" rx="98.1626" ry="22.0325" style="stroke:#181818;stroke-width:0.5;"/><text fill="#000000" font-family="sans-serif" font-size="14" lengthAdjust="spacing" textLength="160" x="178.1626" y="282.8792">View available options</text></g><g id="elem_VRS"><ellipse cx="632.741" cy="367.1482" fill="#F1F1F1" rx="121.241" ry="26.6482" style="stroke:#181818;stroke-width:0.5;"/><text fill="#000000" font-family="sans-serif" font-size="14" lengthAdjust="spacing" textLength="210" x="527.741" y="369.9949">View recommended schedule</text></g><g id="elem_VHR"><ellipse cx="632.7105" cy="279.2421" fill="#F1F1F1" rx="121.7105" ry="26.7421" style="stroke:#181818;stroke-width:0.5;"/><text fill="#000000" font-family="sans-serif" font-size="14" lengthAdjust="spacing" textLength="211" x="527.2105" y="282.0888">View hotel recommendations</text></g><g id="elem_VRR"><ellipse cx="258.2348" cy="384.247" fill="#F1F1F1" rx="139.2348" ry="30.247" style="stroke:#181818;stroke-width:0.5;"/><text fill="#000000" font-family="sans-serif" font-size="14" lengthAdjust="spacing" textLength="248" x="134.2348" y="387.0936">View restaurant recommendations</text></g><g id="elem_GF"><ellipse cx="258.2198" cy="466.244" fill="#F1F1F1" rx="74.2198" ry="17.244" style="stroke:#181818;stroke-width:0.5;"/><text fill="#000000" font-family="sans-serif" font-size="14" lengthAdjust="spacing" textLength="104" x="203.2198" y="469.9915">Give feedback</text></g><!--entity t--><g id="elem_t"><ellipse cx="31" cy="173.5" fill="#F1F1F1" rx="8" ry="8" style="stroke:#181818;stroke-width:0.5;"/><path d="M31,181.5 L31,208.5 M18,189.5 L44,189.5 M31,208.5 L18,223.5 M31,208.5 L44,223.5 " fill="none" style="stroke:#181818;stroke-width:0.5;"/><text fill="#000000" font-family="sans-serif" font-size="14" lengthAdjust="spacing" textLength="50" x="6" y="237.9951">Tourist</text></g><!--link t to ATA--><g id="link_t_ATA"><path d="M44.2907,164.949 C54.1647,140.433 70.4836,109.902 95,92 C120.994,73.019 149.3022,64.9198 179.6162,60.9358 " fill="none" id="t-to-ATA" style="stroke:#181818;stroke-width:1.0;"/><polygon fill="#181818" points="185.565,60.154,176.1205,57.3608,180.6076,60.8055,177.1629,65.2926,185.565,60.154" style="stroke:#181818;stroke-width:1.0;"/></g><!--link t to ETD--><g id="link_t_ETD"><path d="M56.1691,185.89 C67.5095,178.538 81.4812,170.411 95,165 C124.691,153.117 153.1972,145.8992 182.6412,140.2572 " fill="none" id="t-to-ETD" style="stroke:#181818;stroke-width:1.0;"/><polygon fill="#181818" points="188.534,139.128,178.942,136.8932,183.6233,140.069,180.4476,144.7503,188.534,139.128" style="stroke:#181818;stroke-width:1.0;"/></g><!--link t to SPP--><g id="link_t_SPP"><path d="M56.0789,203 C83.4571,203 123.709,203 164.939,203 " fill="none" id="t-to-SPP" style="stroke:#181818;stroke-width:1.0;"/><polygon fill="#181818" points="170.939,203,161.939,199,165.939,203,161.939,207,170.939,203" style="stroke:#181818;stroke-width:1.0;"/></g><!--link t to VAO--><g id="link_t_VAO"><path d="M56.285,219.491 C67.6488,226.615 81.6068,234.549 95,240 C122.369,251.14 147.7966,258.4173 175.5226,264.7483 " fill="none" id="t-to-VAO" style="stroke:#181818;stroke-width:1.0;"/><polygon fill="#181818" points="181.372,266.084,173.4883,260.1809,176.4975,264.9709,171.7074,267.9801,181.372,266.084" style="stroke:#181818;stroke-width:1.0;"/></g><!--link t to GF--><g id="link_t_GF"><path d="M31.1132,241.114 C32.1216,292.183 41.978,382.147 95,432 C118.659,454.2444 147.0302,462.8264 178.0082,466.1987 " fill="none" id="t-to-GF" style="stroke:#181818;stroke-width:1.0;"/><polygon fill="#181818" points="183.973,466.848,175.4587,461.8975,179.0024,466.3069,174.593,469.8505,183.973,466.848" style="stroke:#181818;stroke-width:1.0;"/></g><!--reverse link SPP to P--><g id="link_SPP_P"><path d="M363.395,203 C446.355,203 548.842,203 603.12,203 " fill="none" id="SPP-backto-P" style="stroke:#181818;stroke-width:1.0;stroke-dasharray:7.0,7.0;"/><polygon fill="none" points="345.395,203,363.395,209,363.395,197,345.395,203" style="stroke:#181818;stroke-width:1.0;"/><text fill="#000000" font-family="sans-serif" font-size="13" lengthAdjust="spacing" textLength="52" x="428" y="199.0669">extends</text></g><!--link ATA to SI--><g id="link_ATA_SI"><path d="M331.263,58.194 C395.37,58.366 482.75,58.6009 548.305,58.7769 " fill="none" id="ATA-to-SI" style="stroke:#181818;stroke-width:1.0;stroke-dasharray:7.0,7.0;"/><polygon fill="#181818" points="554.305,58.793,545.3158,54.7689,549.305,58.7796,545.2943,62.7688,554.305,58.793" style="stroke:#181818;stroke-width:1.0;"/><text fill="#000000" font-family="sans-serif" font-size="13" lengthAdjust="spacing" textLength="52" x="428" y="55.0669">includes</text></g><!--link VRR to VAO--><g id="link_VRR_VAO"><path d="M258,353.919 C258,337.362 258,335.175 258,320.084 " fill="none" id="VRR-to-VAO" style="stroke:#181818;stroke-width:1.0;stroke-dasharray:7.0,7.0;"/><polygon fill="none" points="258,302.084,252,320.084,264,320.084,258,302.084" style="stroke:#181818;stroke-width:1.0;"/><text fill="#000000" font-family="sans-serif" font-size="13" lengthAdjust="spacing" textLength="52" x="220.5" y="332.5669">extends</text></g><!--reverse link VAO to VRS--><g id="link_VAO_VRS"><path d="M343.9853,299.8488 C406.4633,314.4408 482.021,332.088 548.92,347.713 " fill="none" id="VAO-backto-VRS" style="stroke:#181818;stroke-width:1.0;stroke-dasharray:7.0,7.0;"/><polygon fill="none" points="326.457,295.755,342.6207,305.6916,345.3499,294.006,326.457,295.755" style="stroke:#181818;stroke-width:1.0;"/><text fill="#000000" font-family="sans-serif" font-size="13" lengthAdjust="spacing" textLength="52" x="428" y="316.0669">extends</text></g><!--reverse link VAO to VHR--><g id="link_VAO_VHR"><path d="M374.3829,279.6906 C421.5919,279.5636 460.749,279.458 510.708,279.324 " fill="none" id="VAO-backto-VHR" style="stroke:#181818;stroke-width:1.0;stroke-dasharray:7.0,7.0;"/><polygon fill="none" points="356.383,279.739,374.3991,285.6906,374.3668,273.6906,356.383,279.739" style="stroke:#181818;stroke-width:1.0;"/><text fill="#000000" font-family="sans-serif" font-size="13" lengthAdjust="spacing" textLength="52" x="428" y="275.0669">extends</text></g><!--SRC=[RP51Rm8X48Nl_8g9f_RWzhu7aqrgrLCtg_6ECAwa20HcjKtR_zw1hTKctcRcFJvuWyKz0Nc8fZyGQ1DHaV5Er1i_H9Ee1fc0X111gZVP8qn-1LWvmhYN2YVmAU1XRNe7ni4Jb6e8Z_daUiLIenIcb6-HOHmtcuRdyqm0YYQ0HfB6fYBEDy-PXvQV0Y4QPLmFmKet4jkMrLP-b2xNMuDda2S-BtSMmOSSO4HjczUBWOFvun6THWr97L0F5aTFjxvu3fxGNfto1hJihg14SeZIqNrdbvqBSqBO8-eThwtC5o_YczT8C2shdavdPGj__QpalcbpK6wvoYd6YY6YXMe8rLSnr83lnFSdmIoej3-xYeLLpJ-XxA0n2NuFP3T3hcxEVA7ydo-xU_CV]--></g></svg>